<?xml version="1.0" encoding="UTF-8" standalone="no"?>
<svg
   xmlns:dc="http://purl.org/dc/elements/1.1/"
   xmlns:cc="http://creativecommons.org/ns#"
   xmlns:rdf="http://www.w3.org/1999/02/22-rdf-syntax-ns#"
   xmlns:svg="http://www.w3.org/2000/svg"
   xmlns="http://www.w3.org/2000/svg"
   id="svg6802"
   version="1.1"
   viewBox="0 0 185.20832 105.83334"
   height="400"
   width="700">
  <defs
     id="defs6796" />
  <metadata
     id="metadata6799">
    <rdf:RDF>
      <cc:Work
         rdf:about="">
        <dc:format>image/svg+xml</dc:format>
        <dc:type
           rdf:resource="http://purl.org/dc/dcmitype/StillImage" />
        <dc:title></dc:title>
      </cc:Work>
    </rdf:RDF>
  </metadata>
  <g
     transform="translate(0,-191.16665)"
     id="layer1">
    <path
       d="m -20.657913,38.698288 c -1.173614,2.141838 -2.831344,5.73601 -4.97319,10.78252 -2.288547,5.39859 -4.048968,9.286166 -5.281263,11.662724 -2.141846,4.136966 -4.283692,7.320368 -6.425537,9.550226 -1.261635,-1.496351 -2.640632,-3.858239 -4.13699,-7.085651 -1.584379,-3.462149 -2.890024,-5.868047 -3.916937,-7.217688 -1.437677,1.907108 -2.890025,4.313006 -4.357042,7.217688 -1.261635,2.552595 -2.5086,5.090523 -3.740895,7.613778 0,0 -2.179255,0.915914 -2.475914,0.14428 l -5.842076,-15.195796 c -1.731081,-5.13454 -3.476832,-10.2544 -5.237253,-15.359593 0.880211,-0.469447 6.918507,-4.106186 7.113868,-3.157872 l 1.952301,9.476756 c 0.968231,1.965791 2.200526,13.250655 3.696884,17.622341 l 3.696885,-11.574334 c 1.643059,-1.525691 2.464589,-2.772645 2.464589,-3.740869 0,-0.616147 -0.396095,-1.569711 -1.188284,-2.860675 -0.997572,-1.584371 -1.569709,-2.567265 -1.716411,-2.948682 1.349657,-0.850864 2.391239,-1.276304 3.124748,-1.276304 1.114933,0 1.965804,0.41077 2.552611,1.232294 0.586807,0.821527 1.144273,1.643051 1.6724,2.464575 0.645487,-0.0587 1.290975,-0.542777 1.936463,-1.452341 0.498786,-0.704164 0.982902,-1.408331 1.452347,-2.112498 0.586807,0.381427 1.173615,0.748177 1.760422,1.100264 0.645487,0.469437 1.056252,0.997554 1.232294,1.584361 -2.053825,1.877781 -3.080737,4.254336 -3.080737,7.129671 0,0.469447 1.731081,2.831332 5.193243,7.085658 1.584379,-2.405895 3.154087,-5.559967 4.709126,-9.462216 1.290976,-3.315442 2.581952,-6.616211 3.872927,-9.902313 0.674828,-0.26406 1.6724,-0.484107 2.992716,-0.660157 1.349656,-0.20538 2.332558,-0.425427 2.948705,-0.660147 z"
       style="font-style:normal;font-variant:normal;font-weight:normal;font-stretch:normal;font-size:44.01052856px;line-height:1.25;font-family:'Alan Den';-inkscape-font-specification:'Alan Den';letter-spacing:0px;word-spacing:0px;fill:none;fill-opacity:1;stroke:#000000;stroke-width:0.82499999;stroke-miterlimit:4;stroke-dasharray:none;stroke-opacity:1"
       id="path7351" />
    <path
       d="m 0.17648189,50.001655 c -0.17604209704,1.085584 2.26104821,4.129566 2.02632541,6.300744 -1.52569835,0 -3.8435862,-0.0734 -6.9536636,-0.22005 -3.1100773,-0.176047 -5.4426357,-0.264067 -6.9976737,-0.264067 -0.762849,0 -1.525699,0.0587 -2.288548,0.17604 0.410765,-0.41076 0.850871,-1.173604 1.320316,-2.288528 0.498786,-1.114924 -0.440105,0.410767 0,0 z M 1.6805736,68.34943 3.8752073,70.693758 c -4.19567033,-0.0587 -6.8216319,-0.32273 -7.8778846,-0.792187 -4.1956705,0 -8.2006287,-1.687058 -12.0148747,-5.06118 -3.931607,-3.462142 -5.536007,-7.136001 -5.89741,-11.398667 -0.288772,-3.405999 1.124725,-6.989708 3.111581,-9.771203 1.876484,-2.626975 4.95684,-4.200776 7.776697,-5.772607 1.4321564,-0.798307 1.7540685,-1.260134 4.5707423,-1.817591 1.0269123,-0.205387 2.5526106,-0.498787 4.5770949,-0.880204 0.088021,0.968224 2.54128557,6.256144 3.7735804,8.691382 -0.498786,-0.088 -1.20295447,-0.1467 -2.11250542,-0.17604 -3.72622468,0.557467 -6.92432308,1.467011 -9.59429518,2.728635 -3.902267,1.848428 -5.8534,4.180976 -5.8534,6.997628 0,2.992705 0.82107,6.069497 3.784445,8.475392 2.2592069,1.848431 5.1995951,4.114439 8.6324164,5.28805 2.2298668,0.762847 3.87292653,1.144264 4.9291792,1.144264 0.7335088,0 -0.4107649,0.23472 0,0 0.4401053,-0.234727 -0.1467018,0 0,0 z"
       style="font-style:normal;font-variant:normal;font-weight:normal;font-stretch:normal;font-size:44.01052856px;line-height:1.25;font-family:'Alan Den';-inkscape-font-specification:'Alan Den';letter-spacing:0px;word-spacing:0px;fill:none;fill-opacity:1;stroke:#000000;stroke-width:0.8251974;stroke-opacity:1"
       id="path7353" />
    <path
       d="m 23.893117,62.155766 v 0.22005 c -0.02934,1.320311 -0.806859,2.743312 -2.332558,4.268996 -1.496357,1.496351 -2.934034,2.464575 -4.313031,2.904682 -1.026913,0.322737 -3.491502,0.484107 -7.3937691,0.484107 -2.7579931,0 -4.5624248,0.22005 -5.413295,0.660157 C 4.704527,67.935783 4.9099095,63.03597 5.0566113,55.994322 5.1739727,49.744865 5.4820464,44.845055 5.9808324,41.294893 c -0.5281263,0.1467 -1.0562527,0.22005 -1.5843791,0.22005 -0.3814245,0 -0.8215298,-0.088 -1.3203158,-0.264057 0.9095509,-1.349654 0.1267223,-4.886983 0.8602311,-5.32708 0.8508702,-0.557467 2.2929362,0.0132 3.7599538,0.0132 3.0513966,0 7.3946896,1.582871 10.3874056,3.049872 3.608863,1.760408 5.413295,4.94867 5.413295,7.677305 0,1.584371 -0.704169,3.286102 -2.112506,5.105193 -1.202954,1.555031 -5.507545,3.288529 -7.062584,4.256756 2.200526,1.026904 4.894406,1.064104 5.627915,1.621571 1.525698,1.173601 3.97261,2.865052 3.943269,4.508103 z M 18.347791,48.336534 c 0,-0.909544 -0.513456,-1.980458 -1.540369,-3.212752 -1.026912,-1.232281 -1.995143,-2.024468 -2.904694,-2.376545 -0.762849,-0.26407 -1.965804,-0.440107 -3.608864,-0.528127 -0.5281262,3.462139 -0.7921893,6.322804 -0.7921893,8.581999 0,0.0587 0.1026912,1.364304 0.3080737,3.916919 1.3496566,-0.264067 3.0513966,-1.070924 5.1052216,-2.420565 2.288547,-1.525691 3.432821,-2.846005 3.432821,-3.960929 z m 0.748179,14.127299 c 0,-2.229855 -2.171186,-3.315439 -6.513558,-3.256759 h -2.112506 c -0.352084,1.202951 -0.5134559,3.388799 -0.4841155,6.557531 l 0.044011,1.012234 h 0.792189 c 1.731081,0.0587 3.418151,-0.220067 5.06121,-0.836194 2.141846,-0.821527 3.212768,-1.980458 3.212769,-3.476812 z"
       style="font-style:normal;font-variant:normal;font-weight:normal;font-stretch:normal;font-size:44.01052856px;line-height:1.25;font-family:'Alan Den';-inkscape-font-specification:'Alan Den';letter-spacing:0px;word-spacing:0px;fill:none;fill-opacity:1;stroke:#000000;stroke-width:0.8251974;stroke-opacity:1"
       id="path7355" />
    <path
       d="m 63.244913,69.274107 c -0.909551,0.645484 0.04978,-0.10604 -1.65196,1.331631 -1.936463,-1.467011 -3.975618,-3.374122 -6.117463,-5.721337 -3.198099,-3.491482 -5.105222,-5.54529 -5.721369,-6.161434 -0.352085,0.850864 -0.836201,2.537925 -1.452348,5.06118 -0.616147,2.523255 -0.953561,4.195646 -1.012242,5.01717 -0.616147,0.26406 -1.599049,0.572127 -2.948705,0.924217 -1.320316,0.322747 -2.303218,0.645484 -2.948706,0.968224 0.02934,-0.23472 2.655302,-3.990269 3.388811,-10.38643 0.264063,-2.581938 0.542797,-5.163873 0.8362,-7.745808 0.322744,-2.963352 0.513456,-5.559957 0.572137,-7.789815 0.440105,0.0293 -1.056253,0.322737 0,0 1.261635,-0.410767 2.068495,-0.645487 2.420579,-0.704167 -0.909551,3.579509 -1.364326,7.525758 -1.364326,11.838764 0.381425,-0.528127 2.097835,-1.599041 5.149232,-3.212742 2.728653,-1.437671 4.092979,-2.567275 4.092979,-3.388802 0,-0.880204 -0.454776,-2.039138 -1.364327,-3.476809 -0.968231,-1.555031 -1.863112,-2.347218 -2.684642,-2.376558 -1.056253,-0.498777 -2.787333,-0.865524 -5.193242,-1.100254 -2.405909,-0.264057 -4.13699,-0.645474 -5.193243,-1.144261 l 4.495427,-5.811197 11.2771,5.569787 c 0.586807,0.704167 3.90018,5.3466 3.90018,6.754931 0,1.555021 -0.82153,3.168732 -2.46459,4.841123 -1.290975,1.320314 -2.802003,2.435238 -4.533084,3.344782 1.643059,3.286102 2.972275,8.937439 8.517602,13.367805 z"
       style="font-style:normal;font-variant:normal;font-weight:normal;font-stretch:normal;font-size:44.01052856px;line-height:1.25;font-family:'Alan Den';-inkscape-font-specification:'Alan Den';letter-spacing:0px;word-spacing:0px;fill:none;fill-opacity:1;stroke:#000000;stroke-width:0.8251974;stroke-opacity:1"
       id="path7357" />
    <path
       d="m 98.369945,65.324508 -0.484116,5.1492 -3.735002,0.2346 -0.660158,-0.704167 -2.288547,-1.980458 C 89.38302,65.969865 88.350215,59.940578 86.971218,55.598232 86.619134,54.365951 86.28172,53.133657 85.958976,51.901373 c -0.440105,-1.467011 -1.932995,-7.577385 -2.40244,-8.516272 -0.704169,0.674827 -1.481688,1.951121 -2.332559,3.828899 -0.645487,1.408324 -1.276305,2.816655 -1.892452,4.224986 l -7.196827,20.776543 c -0.146702,0.0587 -2.239565,-0.289497 -2.503628,-0.289497 -0.528127,0 -1.232295,-0.17604 -2.112506,-0.528127 -0.968231,-0.41077 -1.6724,-0.645487 -2.112505,-0.704167 l 4.97319,-5.633317 4.181,-9.022099 c 2.200527,-5.046523 4.078309,-8.802062 5.633348,-11.266637 l 3.304841,-5.45093 c 0.12169,-0.200707 3.663492,-0.065 3.868875,-0.006 1.584379,4.899813 3.242109,9.594246 4.97319,14.083292 2.875354,7.481745 4.885168,11.457344 6.029442,11.926791 z M 87.367313,57.66671 c -1.965804,1.965801 -2.963376,3.843569 -2.992716,5.63332 -0.82153,-0.880204 -4.247415,-4.269916 -6.125198,-7.526678 0.469446,-0.0293 2.9271,1.277234 3.220503,1.277234 0.616147,0 1.599049,0.117357 2.948705,0.352077 1.261635,0.20539 2.244537,0.293407 2.948706,0.264057 z"
       style="font-style:normal;font-variant:normal;font-weight:normal;font-stretch:normal;font-size:44.01052856px;line-height:1.25;font-family:'Alan Den';-inkscape-font-specification:'Alan Den';letter-spacing:0px;word-spacing:0px;fill:none;fill-opacity:1;stroke:#000000;stroke-width:0.8251974;stroke-opacity:1"
       id="path7359" />
    <path
       d="m 122.87142,40.722759 c -0.52813,1.349651 -3.8787,3.715926 -5.52176,6.532581 -3.84359,6.396154 -6.86564,12.029471 -9.06617,16.899944 l 13.21817,-3.008172 -0.74274,6.685981 c -0.0615,0.554057 -0.1467,1.129594 -0.44011,1.716401 -0.32274,0.674827 -0.74817,1.012234 -1.2763,1.012234 -0.70417,0 -1.73109,-0.205377 -3.08074,-0.616147 -1.34965,-0.410767 -2.37657,-0.616147 -3.08074,-0.616147 h -1.01224 c -2.61129,0 -5.07588,0.45478 -7.39377,1.364324 0,0 -3.54173,0.254367 -4.397,-0.17604 -0.855268,-0.430407 0.15881,-1.497901 -0.192798,-2.457765 -0.351606,-0.959854 0.232748,-2.045948 0.320778,-2.339358 0.1467,-0.440107 0.48411,-0.836194 1.01224,-1.188271 2.55261,-1.643051 4.59177,-3.667532 6.11747,-6.073427 0.82153,-1.320304 1.89245,-3.594169 3.21276,-6.821591 1.2323,-3.080712 2.43526,-5.48661 3.60887,-7.217678 h -2.59662 c -2.02449,0 -5.83873,0.293397 -11.44274,0.880204 l 2.32482,-7.470878 8.76583,1.353441 c 0.61615,0 1.54037,0.0147 2.77267,0.044 1.23229,0.0293 2.15651,0.044 2.77266,0.044 0.17604,0 0.45477,-0.0147 0.8362,-0.044 l 0.92422,-0.088 c 0,1.132484 3.88517,2.999975 4.35704,1.584374 z"
       style="font-style:normal;font-variant:normal;font-weight:normal;font-stretch:normal;font-size:44.01052856px;line-height:1.25;font-family:'Alan Den';-inkscape-font-specification:'Alan Den';letter-spacing:0px;word-spacing:0px;fill:none;fill-opacity:1;stroke:#000000;stroke-width:0.8251974;stroke-opacity:1"
       id="path7361" />
    <path
       d="m 154.79901,40.810776 c -1.2323,1.144264 -2.42059,2.699295 -3.56486,4.665096 -1.08559,1.848428 -3.11931,3.464099 -3.64744,5.22451 -1.43767,4.665093 -4.31303,11.266634 -8.62606,19.804626 l -3.17419,-0.691454 c -1.02691,-7.100331 -4.39863,-17.593831 -11.05889,-30.914276 l 3.21277,-0.660157 7.23954,-0.755904 0.35494,2.966422 0.84283,7.923635 1.67998,16.575857 c 1.71276,-1.657491 4.78518,-12.710348 7.36713,-19.165192 l 1.09934,-4.489046 1.72185,-4.092956 c 0.1467,0.616147 3.2376,1.334974 4.17649,2.156498 0.93889,0.821527 1.73108,1.305644 2.37657,1.452341 z"
       style="font-style:normal;font-variant:normal;font-weight:normal;font-stretch:normal;font-size:44.01052856px;line-height:1.25;font-family:'Alan Den';-inkscape-font-specification:'Alan Den';letter-spacing:0px;word-spacing:0px;fill:none;fill-opacity:1;stroke:#000000;stroke-width:0.8251974;stroke-opacity:1"
       id="path7363" />
    <path
       d="m 184.99778,99.787753 q 0,4.092977 -4.13699,8.802097 -3.38881,3.87293 -7.74585,6.38153 -3.12475,1.76042 -4.97319,1.76042 -4.48908,0 -8.80211,-5.67736 -4.09298,-5.32527 -4.09298,-9.99039 0,-4.753127 5.19325,-10.298454 5.19324,-5.545327 9.90236,-5.545327 4.44507,0 6.02945,1.10027 -13.46722,5.941417 -13.46722,14.259401 0,3.30079 1.49635,6.51356 1.80443,3.91693 4.70913,3.91693 2.28855,0 5.72137,-4.09298 3.3448,-3.96094 3.3448,-6.33751 0,-3.608867 -1.01224,-6.513554 -1.27631,-3.60886 -3.87293,-5.149227 0.48412,-0.3961 1.62839,-0.3961 1.84844,0 3.21277,-0.39609 2.77266,2.068487 4.70912,5.105217 2.15652,3.432817 2.15652,6.557567 z"
       style="font-style:normal;font-variant:normal;font-weight:normal;font-stretch:normal;font-size:44.01052856px;line-height:1.25;font-family:'Alan Den';-inkscape-font-specification:'Alan Den';letter-spacing:0px;word-spacing:0px;fill:#000000;fill-opacity:1;stroke:none;stroke-width:0.8251974"
       id="path7365" />
    <path
       d="m 200.17779,42.897874 -4.4655,27.003717 c -0.11737,0.616147 -0.36676,1.334984 -0.74818,2.156508 -1.61372,3.462142 -4.67979,5.19321 -9.1982,5.19321 -1.34966,0 -2.87536,-0.190707 -4.5771,-0.572134 0.0293,-0.0293 0.49878,-0.909537 1.40834,-2.640615 0.61615,-1.144264 1.30564,-1.731071 2.06849,-1.760411 0.14671,-0.0293 0.35209,-0.0293 0.61615,0 0.32275,0.0293 0.5428,0.044 0.66016,0.044 1.23229,0 2.2949,-0.33741 2.99906,-1.012234 0.85088,-0.792187 1.40834,-2.376558 1.6724,-4.753113 0.088,-1.936451 0.93936,-4.637716 1.23276,-8.481272 0.26406,-2.405908 0.71687,-5.000543 0.98094,-7.406438 0.2934,-2.816655 1.20977,-4.954103 1.23911,-6.978581 -1.49636,0.088 -5.24892,-0.004 -7.86021,0.289017 l 0.63337,-6.005374 7.5966,0.328047 c 0.6742,0.0291 4.70704,-0.333487 6.0567,-0.245467 z"
       style="font-style:normal;font-variant:normal;font-weight:normal;font-stretch:normal;font-size:44.01052856px;line-height:1.25;font-family:'Alan Den';-inkscape-font-specification:'Alan Den';letter-spacing:0px;word-spacing:0px;fill:none;fill-opacity:1;stroke:#000000;stroke-width:0.8251974;stroke-opacity:1"
       id="path7367" />
    <path
       id="path7379"
       style="font-style:normal;font-variant:normal;font-weight:normal;font-stretch:normal;font-size:44.01052856px;line-height:1.25;font-family:'Alan Den';-inkscape-font-specification:'Alan Den';letter-spacing:0px;word-spacing:0px;fill:#000000;fill-opacity:1;stroke:none;stroke-width:0.8251974"
       d="m 200.17779,86.289979 -4.4655,27.003861 c -0.11737,0.61615 -0.36676,1.33499 -0.74818,2.15652 -1.61372,3.46216 -4.67979,5.19324 -9.1982,5.19324 -1.34966,0 -2.87536,-0.19071 -4.5771,-0.57214 0.0293,-0.0293 0.49878,-0.90954 1.40834,-2.64063 0.61615,-1.14427 1.30564,-1.73108 2.06849,-1.76042 0.14671,-0.0293 0.35209,-0.0293 0.61615,0 0.32275,0.0293 0.5428,0.044 0.66016,0.044 1.23229,0 2.2949,-0.33741 2.99906,-1.01224 0.85088,-0.79219 1.40834,-2.37657 1.6724,-4.75314 0.088,-1.93646 0.93936,-4.63774 1.23276,-8.48132 0.26406,-2.405917 0.71687,-5.000567 0.98094,-7.406474 0.2934,-2.81667 1.20977,-4.954127 1.23911,-6.978617 -1.49636,0.088 -5.24892,-0.004 -7.86021,0.28902 l 0.63337,-6.005407 7.5966,0.32805 c 0.6742,0.0291 4.70704,-0.33349 6.0567,-0.24547 z" />
    <path
       id="path7381"
       style="font-style:normal;font-variant:normal;font-weight:normal;font-stretch:normal;font-size:44.01052856px;line-height:1.25;font-family:'Alan Den';-inkscape-font-specification:'Alan Den';letter-spacing:0px;word-spacing:0px;fill:#000000;fill-opacity:1;stroke:none;stroke-width:0.8251974"
       d="m 154.79901,84.202869 c -1.2323,1.14427 -2.42059,2.69931 -3.56486,4.66512 -1.08559,1.848437 -3.11931,3.464117 -3.64744,5.224537 -1.43767,4.665117 -4.31303,11.266694 -8.62606,19.804734 l -3.17419,-0.69146 c -1.02691,-7.10037 -4.39863,-17.593927 -11.05889,-30.914438 l 3.21277,-0.66016 7.23954,-0.75591 0.35494,2.96644 0.84283,7.923674 1.67998,16.575944 c 1.71276,-1.6575 4.78518,-12.710417 7.36713,-19.165291 l 1.09934,-4.48907 1.72185,-4.092977 c 0.1467,0.61615 3.2376,1.33498 4.17649,2.15651 0.93889,0.82153 1.73108,1.30565 2.37657,1.452347 z" />
    <path
       id="path7383"
       style="font-style:normal;font-variant:normal;font-weight:normal;font-stretch:normal;font-size:44.01052856px;line-height:1.25;font-family:'Alan Den';-inkscape-font-specification:'Alan Den';letter-spacing:0px;word-spacing:0px;fill:#000000;fill-opacity:1;stroke:none;stroke-width:0.8251974"
       d="m 122.87142,84.114852 c -0.52813,1.349657 -3.8787,3.715947 -5.52176,6.532614 -3.84359,6.396187 -6.86564,12.029534 -9.06617,16.900034 l 13.21817,-3.00819 -0.74274,6.68602 c -0.0615,0.55406 -0.1467,1.1296 -0.44011,1.71641 -0.32274,0.67483 -0.74817,1.01224 -1.2763,1.01224 -0.70417,0 -1.73109,-0.20538 -3.08074,-0.61615 -1.34965,-0.41077 -2.37657,-0.61615 -3.08074,-0.61615 h -1.01224 c -2.61129,0 -5.07588,0.45478 -7.39377,1.36433 0,0 -3.54173,0.25437 -4.397,-0.17604 -0.855268,-0.43041 0.15881,-1.49791 -0.192798,-2.45778 -0.351606,-0.95986 0.232748,-2.04596 0.320778,-2.33937 0.1467,-0.44011 0.48411,-0.8362 1.01224,-1.18828 2.55261,-1.64306 4.59177,-3.66755 6.11747,-6.07346 0.82153,-1.32031 1.89245,-3.594187 3.21276,-6.821627 1.2323,-3.080727 2.43526,-5.486637 3.60887,-7.217714 h -2.59662 c -2.02449,0 -5.83873,0.2934 -11.44274,0.88021 l 2.32482,-7.470917 8.76583,1.35345 c 0.61615,0 1.54037,0.0147 2.77267,0.044 1.23229,0.0293 2.15651,0.044 2.77266,0.044 0.17604,0 0.45477,-0.0147 0.8362,-0.044 l 0.92422,-0.088 c 0,1.13249 3.88517,2.999987 4.35704,1.58438 z" />
    <path
       id="path7385"
       style="font-style:normal;font-variant:normal;font-weight:normal;font-stretch:normal;font-size:44.01052856px;line-height:1.25;font-family:'Alan Den';-inkscape-font-specification:'Alan Den';letter-spacing:0px;word-spacing:0px;fill:#000000;fill-opacity:1;stroke:none;stroke-width:0.8251974"
       d="m 98.369945,108.71673 -0.484116,5.14923 -3.735002,0.2346 -0.660158,-0.70417 -2.288547,-1.98047 c -1.819102,-2.05383 -2.851907,-8.08315 -4.230904,-12.425517 -0.352084,-1.23229 -0.689498,-2.46459 -1.012242,-3.69688 -0.440105,-1.467017 -1.932995,-7.577424 -2.40244,-8.516314 -0.704169,0.67483 -1.481688,1.95113 -2.332559,3.828917 -0.645487,1.40833 -1.276305,2.81667 -1.892452,4.225007 l -7.196827,20.776657 c -0.146702,0.0587 -2.239565,-0.2895 -2.503628,-0.2895 -0.528127,0 -1.232295,-0.17604 -2.112506,-0.52813 -0.968231,-0.41077 -1.6724,-0.64549 -2.112505,-0.70417 l 4.97319,-5.63335 4.181,-9.022147 c 2.200527,-5.046547 4.078309,-8.802107 5.633348,-11.266694 l 3.304841,-5.450957 c 0.12169,-0.20071 3.663492,-0.065 3.868875,-0.006 1.584379,4.899837 3.242109,9.594294 4.97319,14.083361 2.875354,7.481787 4.885168,11.457407 6.029442,11.926857 z m -11.002632,-7.65784 c -1.965804,1.96581 -2.963376,3.84359 -2.992716,5.63335 -0.82153,-0.88021 -4.247415,-4.26994 -6.125198,-7.526717 0.469446,-0.0293 2.9271,1.277237 3.220503,1.277237 0.616147,0 1.599049,0.11736 2.948705,0.35208 1.261635,0.20539 2.244537,0.29341 2.948706,0.26406 z" />
    <path
       id="path7387"
       style="font-style:normal;font-variant:normal;font-weight:normal;font-stretch:normal;font-size:44.01052856px;line-height:1.25;font-family:'Alan Den';-inkscape-font-specification:'Alan Den';letter-spacing:0px;word-spacing:0px;fill:#000000;fill-opacity:1;stroke:none;stroke-width:0.8251974"
       d="m 63.244913,107.37468 c -0.909551,0.64549 0.04978,-0.10604 -1.65196,1.33164 -1.936463,-1.46702 -3.975618,-3.37414 -6.117463,-5.72137 -3.198099,-3.491497 -5.105222,-5.545317 -5.721369,-6.161467 -0.352085,0.85087 -0.836201,2.53794 -1.452348,5.061207 -0.616147,2.52327 -0.953561,4.19567 -1.012242,5.0172 -0.616147,0.26406 -1.599049,0.57213 -2.948705,0.92422 -1.320316,0.32275 -2.303218,0.64549 -2.948706,0.96823 0.02934,-0.23472 2.655302,-3.99029 3.388811,-10.386487 0.264063,-2.58195 0.542797,-5.163897 0.8362,-7.745847 0.322744,-2.963367 0.513456,-5.559987 0.572137,-7.789854 0.440105,0.0293 -1.056253,0.32274 0,0 1.261635,-0.41077 2.068495,-0.64549 2.420579,-0.70417 -0.909551,3.579527 -1.364326,7.525794 -1.364326,11.838824 0.381425,-0.52813 2.097835,-1.59905 5.149232,-3.21276 2.728653,-1.437677 4.092979,-2.567287 4.092979,-3.388817 0,-0.88021 -0.454776,-2.03915 -1.364327,-3.476827 -0.968231,-1.55504 -1.863112,-2.34723 -2.684642,-2.37657 -1.056253,-0.49878 -2.787333,-0.86553 -5.193242,-1.10026 -2.405909,-0.26406 -4.13699,-0.64548 -5.193243,-1.14427 l 4.495427,-5.811224 11.2771,5.569814 c 0.586807,0.70417 3.90018,5.346627 3.90018,6.754967 0,1.55503 -0.82153,3.16875 -2.46459,4.841147 -1.290975,1.32032 -2.802003,2.43525 -4.533084,3.3448 1.643059,3.286117 2.972275,8.937484 8.517602,13.367874 z" />
    <path
       id="path7389"
       style="font-style:normal;font-variant:normal;font-weight:normal;font-stretch:normal;font-size:44.01052856px;line-height:1.25;font-family:'Alan Den';-inkscape-font-specification:'Alan Den';letter-spacing:0px;word-spacing:0px;fill:#000000;fill-opacity:1;stroke:none;stroke-width:0.8251974"
       d="m 23.893117,100.2563 v 0.22005 c -0.02934,1.32032 -0.806859,2.74333 -2.332558,4.26902 -1.496357,1.49636 -2.934034,2.46459 -4.313031,2.9047 -1.026913,0.32274 -3.491502,0.48411 -7.3937691,0.48411 -2.7579931,0 -4.5624248,0.22005 -5.413295,0.66016 0.2640631,-2.75799 0.4694456,-7.65783 0.6161474,-14.699514 0.1173614,-6.249487 0.4254351,-11.149324 0.9242211,-14.699504 -0.5281263,0.1467 -1.0562527,0.22005 -1.5843791,0.22005 -0.3814245,0 -0.8215298,-0.088 -1.3203158,-0.26406 0.9095509,-1.349657 0.1267223,-4.887007 0.8602311,-5.327107 0.8508702,-0.557467 2.2929362,0.0132 3.7599538,0.0132 3.0513966,0 7.3946896,1.58288 10.3874056,3.04989 3.608863,1.760417 5.413295,4.948697 5.413295,7.677344 0,1.58438 -0.704169,3.28612 -2.112506,5.105217 -1.202954,1.55504 -5.507545,3.28855 -7.062584,4.25678 2.200526,1.026907 4.894406,1.064107 5.627915,1.621577 1.525698,1.17361 3.97261,2.86507 3.943269,4.508127 z M 18.347791,86.436999 c 0,-0.90955 -0.513456,-1.98047 -1.540369,-3.212767 -1.026912,-1.23229 -1.995143,-2.02448 -2.904694,-2.37656 -0.762849,-0.26407 -1.965804,-0.44011 -3.608864,-0.52813 -0.5281262,3.46216 -0.7921893,6.322837 -0.7921893,8.582047 0,0.0587 0.1026912,1.364307 0.3080737,3.916937 1.3496566,-0.26407 3.0513966,-1.07093 5.1052216,-2.42058 2.288547,-1.525697 3.432821,-2.846017 3.432821,-3.960947 z m 0.748179,14.127371 c 0,-2.229867 -2.171186,-3.315457 -6.513558,-3.256777 h -2.112506 c -0.352084,1.20296 -0.5134559,3.388817 -0.4841155,6.557567 l 0.044011,1.01224 h 0.79219 c 1.73108,0.0587 3.41815,-0.22007 5.06121,-0.8362 2.141846,-0.82153 3.212768,-1.98047 3.212768,-3.47683 z" />
    <path
       id="path7391"
       style="font-style:normal;font-variant:normal;font-weight:normal;font-stretch:normal;font-size:44.01052856px;line-height:1.25;font-family:'Alan Den';-inkscape-font-specification:'Alan Den';letter-spacing:0px;word-spacing:0px;fill:#000000;fill-opacity:1;stroke:none;stroke-width:0.8251974"
       d="m 0.17648189,88.102129 c -0.17604209704,1.08559 2.26104821,4.129587 2.02632541,6.300777 -1.52569835,0 -3.8435862,-0.0734 -6.9536636,-0.22005 -3.1100773,-0.17605 -5.4426357,-0.26407 -6.9976737,-0.26407 -0.762849,0 -1.525699,0.0587 -2.288548,0.17604 0.410765,-0.41076 0.850871,-1.17361 1.320316,-2.28854 0.498786,-1.11493 -0.440105,0.41077 0,0 z M 1.6805736,106.45 l 2.1946337,2.34434 c -4.19567033,-0.0587 -6.8216319,-0.32273 -7.8778846,-0.79219 -4.1956705,0 -8.2006287,-1.68707 -12.0148747,-5.06121 -3.931607,-3.462157 -5.536007,-7.136037 -5.89741,-11.398724 -0.288772,-3.406017 1.124725,-6.989747 3.111581,-9.771254 1.876484,-2.62699 4.95684,-4.200797 7.776697,-5.772637 1.4321564,-0.79831 1.7540685,-1.26014 4.5707423,-1.8176 1.0269123,-0.20539 2.5526106,-0.49879 4.5770949,-0.880207 0.088021,0.968227 2.54128557,6.256174 3.7735804,8.691424 -0.498786,-0.088 -1.20295447,-0.1467 -2.11250542,-0.17604 -3.72622468,0.55747 -6.92432308,1.46702 -9.59429518,2.728647 -3.902267,1.84844 -5.8534,4.181 -5.8534,6.997667 0,2.99272 0.82107,6.069527 3.784445,8.475434 2.2592069,1.84844 5.1995951,4.11446 8.6324164,5.28808 2.2298668,0.76285 3.87292653,1.14427 4.9291792,1.14427 0.7335088,0 -0.4107649,0.23472 0,0 0.4401053,-0.23473 -0.1467018,0 0,0 z" />
    <path
       id="path7393"
       style="font-style:normal;font-variant:normal;font-weight:normal;font-stretch:normal;font-size:44.01052856px;line-height:1.25;font-family:'Alan Den';-inkscape-font-specification:'Alan Den';letter-spacing:0px;word-spacing:0px;fill:#000000;fill-opacity:1;stroke:none;stroke-width:0.8251974"
       d="m -20.657913,71.507038 c -1.173614,2.141847 -2.831344,5.736037 -4.97319,10.782574 -2.288547,5.398617 -4.048968,9.286214 -5.281263,11.662784 -2.141846,4.136987 -4.283692,7.320404 -6.425537,9.550274 -1.261635,-1.49636 -2.640632,-3.858257 -4.13699,-7.085687 -1.584379,-3.462167 -2.890024,-5.868077 -3.916937,-7.217724 -1.437677,1.907117 -2.890025,4.313027 -4.357042,7.217724 -1.261635,2.55261 -2.5086,5.090547 -3.740895,7.613817 0,0 -2.179255,0.91592 -2.475914,0.14428 l -5.842076,-15.195871 c -1.731081,-5.134567 -3.476832,-10.254454 -5.237253,-15.359674 0.880211,-0.469447 6.918507,-4.106207 7.113868,-3.157887 l 1.952301,9.476804 c 0.968231,1.9658 2.200526,13.250724 3.696884,17.622431 l 3.696885,-11.574394 c 1.643059,-1.5257 2.464589,-2.772657 2.464589,-3.740887 0,-0.61615 -0.396095,-1.56972 -1.188284,-2.86069 -0.997572,-1.584377 -1.569709,-2.567277 -1.716411,-2.948697 1.349657,-0.85087 2.391239,-1.27631 3.124748,-1.27631 1.114933,0 1.965804,0.41077 2.552611,1.2323 0.586807,0.82153 1.144273,1.64306 1.6724,2.464587 0.645487,-0.0587 1.290975,-0.542777 1.936463,-1.452347 0.498786,-0.70417 0.982902,-1.40834 1.452347,-2.11251 0.586807,0.38143 1.173615,0.74818 1.760422,1.10027 0.645487,0.46944 1.056252,0.99756 1.232294,1.58437 -2.053825,1.877787 -3.080737,4.254357 -3.080737,7.129704 0,0.46945 1.731081,2.83135 5.193243,7.085697 1.584379,-2.40591 3.154087,-5.559997 4.709126,-9.462264 1.290976,-3.31546 2.581952,-6.616247 3.872927,-9.902364 0.674828,-0.26406 1.6724,-0.48411 2.992716,-0.66016 1.349656,-0.20538 2.332558,-0.42543 2.948705,-0.66015 z" />
    <path
       id="path7395"
       style="font-style:normal;font-variant:normal;font-weight:normal;font-stretch:normal;font-size:44.01052856px;line-height:1.25;font-family:'Alan Den';-inkscape-font-specification:'Alan Den';letter-spacing:0px;word-spacing:0px;fill:none;fill-opacity:1;stroke:#000000;stroke-width:0.8251974;stroke-opacity:1"
       d="m 184.99778,51.103939 q 0,4.092956 -4.13699,8.802049 -3.38881,3.872909 -7.74585,6.381494 -3.12475,1.760411 -4.97319,1.760411 -4.48908,0 -8.80211,-5.677327 -4.09298,-5.32524 -4.09298,-9.990336 0,-4.753103 5.19325,-10.2984 5.19324,-5.5453 9.90236,-5.5453 4.44507,0 6.02945,1.100264 -13.46722,5.941387 -13.46722,14.259329 0,3.300772 1.49635,6.513524 1.80443,3.916909 4.70913,3.916909 2.28855,0 5.72137,-4.092959 3.3448,-3.960916 3.3448,-6.337474 0,-3.608849 -1.01224,-6.513521 -1.27631,-3.608839 -3.87293,-5.149203 0.48412,-0.396097 1.62839,-0.396097 1.84844,0 3.21277,-0.396087 2.77266,2.068478 4.70912,5.10519 2.15652,3.432802 2.15652,6.557534 z" />
    <path
       transform="matrix(0.65415354,0,0,0.65415354,48.952035,22.706985)"
       id="path7481"
       d="m -63.113195,166.9357 c 1.022928,5.56472 2.111627,11.10987 3.569367,16.56454 0.0249,0.0932 0.0499,0.18628 0.07501,0.27938 1.448845,5.36183 3.174449,10.69314 5.990031,15.49448 -3.040939,-4.66204 -5.047008,-9.95528 -6.752382,-15.26968 -0.01121,-0.0349 -0.02239,-0.0697 -0.03357,-0.10462 -1.715331,-5.354 -3.071496,-10.81808 -4.349517,-16.28252 0.250139,-0.11374 0.500298,-0.22741 0.750476,-0.34101 0.250177,-0.1136 0.500373,-0.22712 0.750585,-0.34057 z"
       style="fill:none;stroke:#000000;stroke-width:1.89999998;stroke-linecap:butt;stroke-linejoin:miter;stroke-miterlimit:4;stroke-dasharray:none;stroke-opacity:1" />
    <path
       transform="matrix(0.65415354,0,0,0.65415354,48.952035,22.706985)"
       id="path7491"
       d="m -37.804701,171.99755 c -1.188479,2.26654 -2.65659,4.31831 -4.101054,6.33854 -1.63503,2.29056 -3.305151,4.54293 -4.907514,6.83787 -0.109351,0.15661 -0.218386,0.31342 -0.327074,0.47046 0,0 0,0 0,0 -1.631865,2.35924 -3.210208,4.75327 -4.485619,7.31352 0,0 0,0 -10e-7,0 -0.984583,1.98657 -1.887743,4.09489 -1.839941,6.31557 -0.161019,-2.21544 0.635695,-4.41578 1.531918,-6.45956 1.155069,-2.64659 2.624565,-5.14822 4.141939,-7.59691 10e-7,0 10e-7,0 10e-7,0 0.07144,-0.11535 0.143056,-0.23059 0.214827,-0.34571 1.518857,-2.43636 3.10805,-4.8233 4.646629,-7.22899 1.277125,-1.99966 2.551086,-3.9813 3.536738,-6.0624 0.263596,0.0726 0.527809,0.1438 0.79266,0.21342 0.264851,0.0696 0.53034,0.1377 0.796491,0.20419 z"
       style="fill:none;stroke:#000000;stroke-width:2;stroke-linecap:butt;stroke-linejoin:miter;stroke-miterlimit:4;stroke-dasharray:none;stroke-opacity:1" />
    <path
       transform="matrix(0.65415354,0,0,0.65415354,48.952035,22.706985)"
       id="path7511"
       d="m -50.647297,170.97634 c 4.333316,2.50202 6.925995,6.88512 9.062975,11.11252 0.04099,0.0804 0.08181,0.16083 0.122452,0.24134 2.180143,4.31868 3.872948,8.82863 6.307808,12.97312 -2.635108,-3.95908 -4.588206,-8.355 -6.943412,-12.45704 -0.06969,-0.12138 -0.139737,-0.24251 -0.210161,-0.36336 -2.329445,-3.96659 -4.98735,-7.97756 -8.841671,-9.95089 0.08893,-0.25608 0.17525,-0.51375 0.258932,-0.77302 0.08368,-0.25928 0.164724,-0.52016 0.243077,-0.78267 z"
       style="fill:none;stroke:#000000;stroke-width:2;stroke-linecap:butt;stroke-linejoin:miter;stroke-miterlimit:4;stroke-dasharray:none;stroke-opacity:1" />
    <path
       transform="matrix(0.65415354,0,0,0.65415354,48.952035,22.706985)"
       id="path7521"
       d="m -26.616008,168.1277 c 0.632613,0.21252 1.419439,0.0809 1.777046,0.57624 0.08478,0.0967 0.02945,0.26849 0.0066,0.43088 -0.04561,0.25404 -0.12126,0.50341 -0.201925,0.75191 0,0 0,0 0,0 -0.138251,0.42551 -0.306148,0.84236 -0.463571,1.26432 -1.309582,3.51005 -2.933936,6.89463 -4.639098,10.23574 -0.350041,0.68587 -0.703487,1.36992 -1.058315,2.05283 -1.155,2.22292 -2.351999,4.42448 -3.619485,6.5853 0,0 0,0 0,0 -1.008285,1.7189 -2.044533,3.42605 -3.237614,5.0223 1.198457,-1.59222 2.240833,-3.29639 3.254986,-5.01207 0,0 0,0 1e-6,0 1.274985,-2.15691 2.479707,-4.35496 3.642456,-6.57448 0,0 0,0 0,0 0.33118,-0.63215 0.66119,-1.26531 0.988424,-1.90007 1.744866,-3.38459 3.410793,-6.81437 4.754053,-10.37752 0.158328,-0.41995 0.32805,-0.83742 0.469187,-1.2666 0,0 1e-6,0 1e-6,0 0.08209,-0.24939 0.159661,-0.50272 0.207728,-0.76407 0.03443,-0.15244 0.08439,-0.34956 -0.02356,-0.50868 -0.348866,-0.44535 -0.960082,-0.4431 -1.498202,-0.53905 -0.05959,0.008 -0.119132,0.0147 -0.17885,0.0188 -0.05972,0.004 -0.119602,0.006 -0.179873,0.004 z"
       style="fill:none;stroke:#000000;stroke-width:1.79999995;stroke-linecap:butt;stroke-linejoin:miter;stroke-miterlimit:4;stroke-dasharray:none;stroke-opacity:1" />
    <path
       style="fill:none;stroke:#000000;stroke-width:3;stroke-linecap:butt;stroke-linejoin:miter;stroke-miterlimit:4;stroke-dasharray:none;stroke-opacity:1"
       d="m -63.113195,166.9357 c 1.022928,5.56472 2.111627,11.10987 3.569367,16.56454 0.0249,0.0932 0.0499,0.18628 0.07501,0.27938 1.448845,5.36183 3.174449,10.69314 5.990031,15.49448 -3.040939,-4.66204 -5.047008,-9.95528 -6.752382,-15.26968 -0.01121,-0.0349 -0.02239,-0.0697 -0.03357,-0.10462 -1.715331,-5.354 -3.071496,-10.81808 -4.349517,-16.28252 0.250139,-0.11374 0.500298,-0.22741 0.750476,-0.34101 0.250177,-0.1136 0.500373,-0.22712 0.750585,-0.34057 z"
       id="path7531"
       transform="translate(-63.500003,155.04589)" />
    <path
       style="fill:none;stroke:#000000;stroke-width:3;stroke-linecap:butt;stroke-linejoin:miter;stroke-miterlimit:4;stroke-dasharray:none;stroke-opacity:1"
       d="m -37.804701,171.99755 c -1.188479,2.26654 -2.65659,4.31831 -4.101054,6.33854 -1.63503,2.29056 -3.305151,4.54293 -4.907514,6.83787 -0.109351,0.15661 -0.218386,0.31342 -0.327074,0.47046 0,0 0,0 0,0 -1.631865,2.35924 -3.210208,4.75327 -4.485619,7.31352 0,0 0,0 -10e-7,0 -0.984583,1.98657 -1.887743,4.09489 -1.839941,6.31557 -0.161019,-2.21544 0.635695,-4.41578 1.531918,-6.45956 1.155069,-2.64659 2.624565,-5.14822 4.141939,-7.59691 10e-7,0 10e-7,0 10e-7,0 0.07144,-0.11535 0.143056,-0.23059 0.214827,-0.34571 1.518857,-2.43636 3.10805,-4.8233 4.646629,-7.22899 1.277125,-1.99966 2.551086,-3.9813 3.536738,-6.0624 0.263596,0.0726 0.527809,0.1438 0.79266,0.21342 0.264851,0.0696 0.53034,0.1377 0.796491,0.20419 z"
       id="path7535"
       transform="translate(-63.500003,155.04589)" />
    <path
       style="fill:none;stroke:#000000;stroke-width:3;stroke-linecap:butt;stroke-linejoin:miter;stroke-miterlimit:4;stroke-dasharray:none;stroke-opacity:1"
       d="m -50.647297,170.97634 c 4.333316,2.50202 6.925995,6.88512 9.062975,11.11252 0.04099,0.0804 0.08181,0.16083 0.122452,0.24134 2.180143,4.31868 3.872948,8.82863 6.307808,12.97312 -2.635108,-3.95908 -4.588206,-8.355 -6.943412,-12.45704 -0.06969,-0.12138 -0.139737,-0.24251 -0.210161,-0.36336 -2.329445,-3.96659 -4.98735,-7.97756 -8.841671,-9.95089 0.08893,-0.25608 0.17525,-0.51375 0.258932,-0.77302 0.08368,-0.25928 0.164724,-0.52016 0.243077,-0.78267 z"
       id="path7539"
       transform="translate(-63.500003,155.04589)" />
    <path
       style="fill:none;stroke:#000000;stroke-width:3;stroke-linecap:butt;stroke-linejoin:miter;stroke-miterlimit:4;stroke-dasharray:none;stroke-opacity:1"
       d="m -26.616008,168.1277 c 0.632613,0.21252 1.419439,0.0809 1.777046,0.57624 0.08478,0.0967 0.02945,0.26849 0.0066,0.43088 -0.04561,0.25404 -0.12126,0.50341 -0.201925,0.75191 0,0 0,0 0,0 -0.138251,0.42551 -0.306148,0.84236 -0.463571,1.26432 -1.309582,3.51005 -2.933936,6.89463 -4.639098,10.23574 -0.350041,0.68587 -0.703487,1.36992 -1.058315,2.05283 -1.155,2.22292 -2.351999,4.42448 -3.619485,6.5853 0,0 0,0 0,0 -1.008285,1.7189 -2.044533,3.42605 -3.237614,5.0223 1.198457,-1.59222 2.240833,-3.29639 3.254986,-5.01207 0,0 0,0 1e-6,0 1.274985,-2.15691 2.479707,-4.35496 3.642456,-6.57448 0,0 0,0 0,0 0.33118,-0.63215 0.66119,-1.26531 0.988424,-1.90007 1.744866,-3.38459 3.410793,-6.81437 4.754053,-10.37752 0.158328,-0.41995 0.32805,-0.83742 0.469187,-1.2666 0,0 1e-6,0 1e-6,0 0.08209,-0.24939 0.159661,-0.50272 0.207728,-0.76407 0.03443,-0.15244 0.08439,-0.34956 -0.02356,-0.50868 -0.348866,-0.44535 -0.960082,-0.4431 -1.498202,-0.53905 -0.05959,0.008 -0.119132,0.0147 -0.17885,0.0188 -0.05972,0.004 -0.119602,0.006 -0.179873,0.004 z"
       id="path7543"
       transform="translate(-63.500003,155.04589)" />
    <path
       transform="matrix(0.65415354,0,0,0.65415354,48.952035,23.399295)"
       id="path7557"
       d="m -1.9375673,167.37821 c -4.180678,0.0506 -8.1240677,2.69439 -11.1314947,5.89583 0,0 0,0 0,0 -2.630205,2.86481 -4.734337,6.4792 -4.582159,10.30457 0,0 0,0 0,0 0.0064,0.2086 0.01957,0.41668 0.03934,0.62404 0.267408,2.80468 1.736515,5.47804 3.757867,7.54479 2.170845,2.21374 4.9350352,3.86178 7.9297654,4.76111 4e-7,0 8e-7,0 1.3e-6,0 1.3358259,0.40062 2.7243065,0.64964 4.1207119,0.63969 1.19503127,-0.009 2.40789568,-0.2091 3.4781087,-0.75127 -1.05287871,0.57514 -2.26935934,0.81766 -3.4756279,0.86301 -1.4092205,0.0534 -2.8238303,-0.15365 -4.18933,-0.51829 -4e-7,0 -8e-7,0 -1.3e-6,0 -3.0603668,-0.81623 -5.9330461,-2.40368 -8.2397841,-4.61377 -1e-6,0 -1e-6,0 -1e-6,0 -2.095533,-2.00315 -3.685139,-4.64523 -4.141116,-7.55094 -0.0496,-0.31608 -0.08579,-0.63527 -0.107752,-0.95711 -0.247684,-4.13575 1.816104,-8.08411 4.518393,-11.14825 0,0 0,0 0,0 2.878727,-3.33721 6.818229,-6.17181 11.3716864,-6.65975 0.120716,0.25664 0.2354651,0.51551 0.3440855,0.77657 0.1086169,0.26107 0.2111054,0.52433 0.3073038,0.78977 z"
       style="fill:none;stroke:#000000;stroke-width:1.89999998;stroke-linecap:butt;stroke-linejoin:miter;stroke-miterlimit:4;stroke-dasharray:none;stroke-opacity:1" />
    <path
       transform="matrix(0.65415354,0,0,0.65415354,48.952035,23.399295)"
       id="path7567"
       d="m 0.3421601,182.17768 c -1.49464,0.33004 -2.9365958,0.21267 -4.2830913,0.12669 -1.7092481,-0.0968 -3.398682,-0.24825 -5.0850336,-0.34056 -0.1181482,-0.006 -0.2362814,-0.0126 -0.3544051,-0.0185 -1.7130471,-0.0828 -3.4209021,-0.1366 -5.1013291,0.11922 0,0 -10e-7,0 -10e-7,0 -1.192474,0.19466 -2.493086,0.5041 -3.158444,1.52067 0.572954,-1.07163 1.895832,-1.5577 3.0962,-1.83731 0,0 0,0 0,0 1.689716,-0.41009 3.443997,-0.51486 5.1683609,-0.57975 2e-7,0 3e-7,0 5e-7,0 0.086905,-0.003 0.1738006,-0.007 0.2606848,-0.01 1.7397029,-0.0604 3.4748704,-0.0572 5.1912838,-0.11143 1.310033,-0.0486 2.5838448,-0.0445 3.67823244,-0.37741 0.0904052,0.25312 0.18446627,0.50537 0.28233871,0.7567 0.09787125,0.25133 0.19955374,0.50174 0.30520295,0.7512 z"
       style="fill:none;stroke:#000000;stroke-width:2;stroke-linecap:butt;stroke-linejoin:miter;stroke-miterlimit:4;stroke-dasharray:none;stroke-opacity:1" />
    <path
       transform="translate(-63.500003,158.22089)"
       id="path7593"
       d="m -1.9375673,167.37821 c -4.180678,0.0506 -8.1240677,2.69439 -11.1314947,5.89583 0,0 0,0 0,0 -2.630205,2.86481 -4.734337,6.4792 -4.582159,10.30457 0,0 0,0 0,0 0.0064,0.2086 0.01957,0.41668 0.03934,0.62404 0.267408,2.80468 1.736515,5.47804 3.757867,7.54479 2.170845,2.21374 4.9350352,3.86178 7.9297654,4.76111 4e-7,0 8e-7,0 1.3e-6,0 1.3358259,0.40062 2.7243065,0.64964 4.1207119,0.63969 1.19503127,-0.009 2.40789568,-0.2091 3.4781087,-0.75127 -1.05287871,0.57514 -2.26935934,0.81766 -3.4756279,0.86301 -1.4092205,0.0534 -2.8238303,-0.15365 -4.18933,-0.51829 -4e-7,0 -8e-7,0 -1.3e-6,0 -3.0603668,-0.81623 -5.9330461,-2.40368 -8.2397841,-4.61377 -1e-6,0 -1e-6,0 -1e-6,0 -2.095533,-2.00315 -3.685139,-4.64523 -4.141116,-7.55094 -0.0496,-0.31608 -0.08579,-0.63527 -0.107752,-0.95711 -0.247684,-4.13575 1.816104,-8.08411 4.518393,-11.14825 0,0 0,0 0,0 2.878727,-3.33721 6.818229,-6.17181 11.3716864,-6.65975 0.120716,0.25664 0.2354651,0.51551 0.3440855,0.77657 0.1086169,0.26107 0.2111054,0.52433 0.3073038,0.78977 z"
       style="fill:none;stroke:#000000;stroke-width:3;stroke-linecap:butt;stroke-linejoin:miter;stroke-miterlimit:4;stroke-dasharray:none;stroke-opacity:1" />
    <path
       transform="translate(-63.500003,158.22089)"
       id="path7597"
       d="m 0.3421601,182.17768 c -1.49464,0.33004 -2.9365958,0.21267 -4.2830913,0.12669 -1.7092481,-0.0968 -3.398682,-0.24825 -5.0850336,-0.34056 -0.1181482,-0.006 -0.2362814,-0.0126 -0.3544051,-0.0185 -1.7130471,-0.0828 -3.4209021,-0.1366 -5.1013291,0.11922 0,0 -10e-7,0 -10e-7,0 -1.192474,0.19466 -2.493086,0.5041 -3.158444,1.52067 0.572954,-1.07163 1.895832,-1.5577 3.0962,-1.83731 0,0 0,0 0,0 1.689716,-0.41009 3.443997,-0.51486 5.1683609,-0.57975 2e-7,0 3e-7,0 5e-7,0 0.086905,-0.003 0.1738006,-0.007 0.2606848,-0.01 1.7397029,-0.0604 3.4748704,-0.0572 5.1912838,-0.11143 1.310033,-0.0486 2.5838448,-0.0445 3.67823244,-0.37741 0.0904052,0.25312 0.18446627,0.50537 0.28233871,0.7567 0.09787125,0.25133 0.19955374,0.50174 0.30520295,0.7512 z"
       style="fill:none;stroke:#000000;stroke-width:3;stroke-linecap:butt;stroke-linejoin:miter;stroke-miterlimit:4;stroke-dasharray:none;stroke-opacity:1" />
    <path
       transform="matrix(0.64015873,0.03341401,-0.03341401,0.64015873,55.469967,1.1581856)"
       id="path7601"
       d="m -24.885054,206.60901 c 3.867215,-0.61936 7.736516,-0.72083 11.563081,-1.064 0.03022,-0.003 0.06045,-0.005 0.09067,-0.008 3.8477782,-0.35292 7.6856625,-1.09906 11.2585882,-2.62614 -3.4410356,1.7143 -7.228564,2.69933 -11.0540552,3.28214 -0.07148,0.0109 -0.142978,0.0216 -0.214485,0.0323 -3.746791,0.55812 -7.519094,0.88243 -11.15197,1.66685 -0.08075,-0.21411 -0.162099,-0.42807 -0.244066,-0.64188 -0.08197,-0.21381 -0.164547,-0.42747 -0.247761,-0.64098 z"
       style="fill:none;stroke:#000000;stroke-width:1.5;stroke-linecap:butt;stroke-linejoin:miter;stroke-miterlimit:4;stroke-dasharray:none;stroke-opacity:1" />
    <path
       style="fill:none;stroke:#000000;stroke-width:1.5;stroke-linecap:butt;stroke-linejoin:miter;stroke-miterlimit:4;stroke-dasharray:none;stroke-opacity:1"
       d="m -24.885054,206.60901 c 3.867215,-0.61936 7.736516,-0.72083 11.563081,-1.064 0.03022,-0.003 0.06045,-0.005 0.09067,-0.008 3.8477782,-0.35292 7.6856625,-1.09906 11.2585882,-2.62614 -3.4410356,1.7143 -7.228564,2.69933 -11.0540552,3.28214 -0.07148,0.0109 -0.142978,0.0216 -0.214485,0.0323 -3.746791,0.55812 -7.519094,0.88243 -11.15197,1.66685 -0.08075,-0.21411 -0.162099,-0.42807 -0.244066,-0.64188 -0.08197,-0.21381 -0.164547,-0.42747 -0.247761,-0.64098 z"
       id="path7611"
       transform="matrix(0.97860622,0.05107976,-0.05107976,0.97860622,-53.536085,123.1627)" />
    <path
       transform="matrix(0.65415354,0,0,0.65415354,48.952035,23.053145)"
       id="path7645"
       d="m 4.1128281,165.90616 c 3.6735237,-0.36936 7.5549089,0.059 10.8573189,1.86866 2.345587,1.27293 4.367898,3.41282 4.966286,6.10026 0,0 -1e-6,0 -1e-6,0 0.512,2.54741 -0.554216,5.16082 -2.410542,6.85116 -2.552395,2.14266 -5.921245,2.99892 -9.2399651,3.32582 -0.4426031,0.0436 -0.8843146,0.0778 -1.3230788,0.10434 2.0240508,-0.24017 4.0073369,0.10278 5.8758599,0.6387 2.009963,0.68352 3.970079,1.61541 5.633716,2.95973 10e-7,0 10e-7,0 10e-7,0 0.68616,0.55287 1.326855,1.19436 1.793576,1.96467 0.394347,0.6475 0.636571,1.41291 0.574443,2.18725 -0.07919,0.85456 -0.517596,1.62059 -1.081273,2.22318 -0.851391,0.91429 -1.934583,1.55531 -3.034766,2.08828 -10e-7,0 -10e-7,0 -2e-6,0 -0.80573,0.38823 -1.703492,0.46742 -2.564249,0.52222 -1.110568,0.0734 -2.222298,0.0505 -3.329133,-0.002 -10e-7,0 -10e-7,0 -2e-6,0 -1.0332677,-0.049 -2.0639116,-0.13 -3.0931631,-0.22052 -0.6121931,-0.0538 -1.2209842,-0.13821 -1.8332851,-0.14508 0.6123009,-0.007 1.2246653,0.0632 1.8365208,0.10284 1.030806,0.0668 2.062257,0.12396 3.0940384,0.14913 1.105731,0.0269 2.212723,0.0243 3.310329,-0.0739 10e-7,0 10e-7,0 2e-6,0 0.856388,-0.0783 1.728284,-0.17186 2.467311,-0.5559 1.07407,-0.55456 2.115769,-1.20093 2.899394,-2.08914 0.510019,-0.58079 0.899686,-1.28716 0.94077,-2.02825 0.0459,-0.66983 -0.193884,-1.34513 -0.559968,-1.92765 -0.442449,-0.70057 -1.060805,-1.28575 -1.729633,-1.80451 0,-1e-5 -1e-6,-1e-5 -1e-6,-1e-5 -1.62883,-1.25986 -3.548923,-2.11282 -5.525539,-2.73953 -1.862605,-0.6867 -3.7934838,-1.23078 -5.6918951,-1.24814 0.3048788,-0.0426 0.6105101,-0.089 0.9161029,-0.13995 3.3324552,-0.55551 6.6603262,-1.64504 8.9577992,-4.04677 1.569321,-1.51387 2.458471,-3.80619 1.949416,-5.83583 -0.49979,-2.23521 -2.356333,-4.03431 -4.449513,-5.15459 0,0 -1e-6,0 -1e-6,0 -2.789603,-1.47684 -6.0941122,-1.81907 -9.3136316,-1.53939 -0.1412202,-0.25913 -0.2864003,-0.51674 -0.4353424,-0.77264 -0.1489374,-0.2559 -0.3016366,-0.51009 -0.4578999,-0.76239 z m 4.6936712,1.37674 -1.3133189,14.07966 -1.3133166,14.07966 0.5010253,-13.98194 0.5010281,-13.98195 0.8122912,-0.0977 z"
       style="fill:none;stroke:#000000;stroke-width:1.70000005;stroke-linecap:butt;stroke-linejoin:miter;stroke-miterlimit:4;stroke-dasharray:none;stroke-opacity:1" />
    <path
       transform="matrix(0.65415354,0,0,0.65415354,48.952035,-2.5624321)"
       id="path7655"
       d="m 1.7659382,236.04631 c 1.0326005,0.11796 2.0832666,-0.47207 2.8307535,-1.29366 0.00802,-0.009 0.015996,-0.0176 0.023941,-0.0265 0.7364765,-0.82522 1.2685768,-1.83562 1.8970227,-2.7692 -0.5624001,0.97486 -1.0187102,2.01256 -1.7172478,2.91844 -6.41e-5,9e-5 -1.283e-4,1.7e-4 -1.924e-4,2.5e-4 -0.7020676,0.91334 -1.7669131,1.63274 -2.9848216,1.6425 -0.010319,-0.0783 -0.019608,-0.15673 -0.027855,-0.23537 -0.00825,-0.0786 -0.015451,-0.15746 -0.0216,-0.23645 z"
       style="fill:none;stroke:#000000;stroke-width:1.29999995;stroke-linecap:butt;stroke-linejoin:miter;stroke-miterlimit:4;stroke-dasharray:none;stroke-opacity:1" />
    <path
       transform="matrix(0.65415354,0,0,0.65415354,48.952035,24.091615)"
       id="path7665"
       d="m 44.499206,166.68439 c 1.679673,-0.47669 3.621395,-0.86521 5.516241,-0.25343 1.968768,0.67873 3.900053,1.70621 5.396643,3.24067 2.172699,2.17834 3.770793,5.39256 2.954771,8.47452 -10e-7,0 0,0 0,0 -0.397305,1.38243 -1.359159,2.52728 -2.560004,3.23791 -0.03526,0.0209 -0.07073,0.0414 -0.106396,0.0615 -1.725355,0.89175 -3.738713,1.04619 -5.66606,0.95204 1.691036,2.52096 3.104694,5.20472 4.790586,7.74381 0,1e-5 0,1e-5 0,1e-5 0.871559,1.35083 1.800609,2.66777 2.897366,3.83944 0.892575,0.95138 1.901521,1.84477 3.133943,2.27807 -1.246426,-0.39129 -2.300942,-1.25683 -3.229423,-2.1857 -1.144119,-1.14282 -2.127409,-2.43917 -3.04826,-3.76709 0,0 0,-1e-5 -10e-7,-1e-5 -1.74271,-2.57598 -3.171058,-5.37952 -4.800777,-8.04907 1.885299,-0.0887 3.815372,-0.42641 5.398433,-1.42983 0.03917,-0.0248 0.07813,-0.0501 0.116867,-0.0757 1.057393,-0.65032 1.889482,-1.68212 2.164667,-2.84606 0,0 0,-1e-5 0,-1e-5 0.686746,-2.60361 -0.936579,-5.38166 -2.92149,-7.35801 0,0 -1e-6,0 -1e-6,0 -1.346814,-1.30689 -3.132215,-2.15702 -4.976999,-2.74803 -1.23769,-0.42956 -2.670124,-0.0977 -4.139668,0.30739 -0.150488,-0.24063 -0.303153,-0.4796 -0.45692,-0.71673 -0.153763,-0.23712 -0.308628,-0.4724 -0.463518,-0.70565 z m 3.19829,4.77563 c 0.698452,4.32219 -0.258146,8.57528 -1.068418,12.65209 -0.604607,2.5493 -1.249435,5.10271 -1.476834,7.62912 -0.136045,1.51146 -0.122685,3.01325 0.138079,4.4987 -0.105619,-2.67427 0.08019,-5.36687 0.761811,-7.94935 0,0 0,0 0,0 0.693885,-2.45342 1.835602,-4.86297 3.727284,-6.55046 -1.822885,1.76166 -2.84046,4.18336 -3.433788,6.62776 0,0 0,0 0,0 -0.670826,2.58582 -0.947807,5.2646 -1.04925,7.93322 0,0 0,0 0,0 -0.326131,-1.46413 -0.447877,-2.9463 -0.448899,-4.43063 -0.0018,-2.67455 0.388276,-5.35609 0.680937,-7.95167 0.606343,-3.99056 1.359182,-8.0077 0.659675,-11.7618 0.252975,-0.10919 0.50526,-0.22179 0.756834,-0.33792 0.251574,-0.11613 0.502438,-0.23578 0.752569,-0.35906 z"
       style="fill:none;stroke:#000000;stroke-width:2.0999999;stroke-linecap:butt;stroke-linejoin:miter;stroke-miterlimit:4;stroke-dasharray:none;stroke-opacity:1" />
    <path
       transform="matrix(0.65415354,0,0,0.65415354,48.952035,23.053145)"
       id="path7675"
       d="m 68.455957,197.72137 c 2.913676,-4.86988 5.372812,-10.04454 7.889836,-15.19811 2.517024,-5.15357 5.091936,-10.28604 8.237162,-15.07153 -2.887348,4.87488 -5.18711,10.0359 -7.43483,15.23974 -2.247721,5.20383 -4.443399,10.45048 -7.122579,15.49662 -0.261993,-0.0768 -0.523792,-0.15408 -0.785392,-0.23186 -0.261599,-0.0778 -0.522999,-0.15607 -0.784197,-0.23486 z"
       style="fill:none;stroke:#000000;stroke-width:2;stroke-linecap:butt;stroke-linejoin:miter;stroke-miterlimit:4;stroke-dasharray:none;stroke-opacity:1" />
    <path
       transform="matrix(0.65415354,0,0,0.65415354,48.952035,23.399295)"
       id="path7685"
       d="m 84.980459,167.12632 c 2.091169,4.9299 4.002722,9.92962 5.74311,14.98371 1.740389,5.05409 3.309614,10.16254 4.716126,15.30991 -1.646983,-5.01601 -3.448603,-9.97807 -5.410696,-14.87013 -1.962092,-4.89207 -4.084658,-9.71414 -6.373536,-14.4502 0.22104,-0.16186 0.441976,-0.3239 0.662808,-0.48611 0.220833,-0.16222 0.441563,-0.32461 0.662188,-0.48718 z m -8.401319,15.54952 c 2.65611,0.30615 5.299751,0.74324 7.896296,1.34419 2.596546,0.60094 5.145996,1.36575 7.613723,2.32733 -2.525817,-0.69837 -5.091151,-1.19184 -7.673498,-1.5209 -2.582348,-0.32907 -5.18171,-0.49372 -7.775585,-0.53443 -0.0096,-0.26938 -0.01948,-0.53875 -0.02964,-0.80811 -0.01015,-0.26937 -0.02059,-0.53872 -0.0313,-0.80808 z"
       style="fill:none;stroke:#000000;stroke-width:2;stroke-linecap:butt;stroke-linejoin:miter;stroke-miterlimit:4;stroke-dasharray:none;stroke-opacity:1" />
    <path
       transform="matrix(0.71806513,0,0,0.71806513,41.204342,12.541658)"
       id="path7705"
       d="m 119.59718,192.51145 c -6.02349,1.5871 -12.23215,1.97311 -18.30361,2.37769 1.10291,-1.6325 2.21133,-3.25509 3.32526,-4.86778 1.75475,-2.54044 3.52319,-5.0563 5.3053,-7.54758 3.05043,-3.89368 6.10014,-7.78639 9.14915,-11.67815 -2.916,3.99246 -5.83126,7.98391 -8.74578,11.97436 -1.69606,2.40151 -3.40561,4.77878 -5.12865,7.13181 -1.17465,1.60414 -2.35558,3.19701 -3.54278,4.77862 5.81973,-0.69694 11.61551,-1.5121 16.9797,-3.52986 0.15391,0.22216 0.31096,0.44666 0.47118,0.67348 0.16023,0.22682 0.32363,0.45596 0.49023,0.68741 z M 102.44246,168.0805 c 2.81051,-0.69835 5.65766,-0.27611 8.25456,0.56016 0.0611,0.0197 0.12199,0.0395 0.18277,0.0597 2.51702,0.82365 4.88856,1.93838 7.46941,2.35451 -2.60992,-0.15454 -5.15397,-1.03604 -7.6788,-1.59318 -0.0332,-0.007 -0.0664,-0.0143 -0.0997,-0.0214 -2.55383,-0.5428 -5.21235,-0.68942 -7.50755,0.13236 -0.099,-0.24978 -0.20024,-0.49902 -0.30368,-0.74771 -0.10344,-0.24869 -0.20911,-0.49683 -0.31702,-0.74441 z"
       style="fill:none;stroke:#000000;stroke-width:2;stroke-linecap:butt;stroke-linejoin:miter;stroke-miterlimit:4;stroke-dasharray:none;stroke-opacity:1;paint-order:stroke fill markers" />
    <path
       transform="matrix(0.65415354,0,0,0.65415354,48.952035,-2.5624321)"
       id="path7719"
       d="m 94.773891,235.91728 c 1.266284,-1.72344 2.039935,-3.83945 2.659701,-6.00639 0,0 0,0 0,0 0.735623,-2.59725 1.188536,-5.28923 1.525525,-8.00123 0,0 0,0 0,0 0.01935,-0.15587 0.03828,-0.31181 0.0568,-0.46781 0.608807,-5.12921 0.771823,-10.32376 0.903725,-15.5115 0.13617,5.13258 0.24278,10.27495 -0.08786,15.42029 -0.01372,0.21347 -0.02819,0.42694 -0.04344,0.64042 0,0 -10e-7,0 -10e-7,1e-5 -0.196146,2.75008 -0.514993,5.5099 -1.132935,8.23148 -0.483237,2.1544 -1.158937,4.34031 -2.361321,6.31195 -0.256264,-0.0965 -0.511118,-0.1961 -0.764504,-0.29894 -0.253384,-0.10284 -0.5053,-0.20891 -0.755689,-0.31828 z"
       style="fill:#000000;stroke:none;stroke-width:0.26458332px;stroke-linecap:butt;stroke-linejoin:miter;stroke-opacity:1" />
    <path
       transform="matrix(0.65415354,0,0,0.65415354,48.952035,22.014665)"
       id="path7739"
       d="m 131.2896,167.6741 c 0.24458,4.84642 1.00998,9.67576 2.02223,14.48809 1.01226,4.81232 2.27136,9.60765 3.50335,14.38605 -1.59261,-4.61548 -3.21411,-9.24309 -4.60659,-13.94569 -1.39248,-4.70261 -2.55592,-9.48022 -3.2324,-14.39571 0.38519,-0.0905 0.77057,-0.18014 1.15613,-0.26893 0.38557,-0.0888 0.77133,-0.17673 1.15728,-0.26381 z m 20.61653,2.30104 c -1.96075,4.91823 -4.23222,9.69535 -6.78049,14.30643 -2.54827,4.61107 -5.37334,9.05611 -8.44129,13.31015 2.71069,-4.42524 5.15827,-8.99979 7.3161,-13.69275 2.15783,-4.69296 4.0259,-9.50435 5.57758,-14.40326 0.38772,0.0809 0.77559,0.16136 1.16361,0.24126 0.38802,0.0799 0.77618,0.1593 1.16449,0.23817 z"
       style="fill:none;stroke:#000000;stroke-width:2.20000005;stroke-linecap:butt;stroke-linejoin:miter;stroke-miterlimit:4;stroke-dasharray:none;stroke-opacity:1" />
    <path
       transform="matrix(0.65415354,0,0,0.65415354,48.952035,-2.5624321)"
       id="path7749"
       d="m 118.63454,233.84827 c 0.35972,-5.26147 2.36502,-10.12011 4.38718,-14.80524 0.0122,-0.0282 0.0243,-0.0564 0.0365,-0.0846 2.0021,-4.66341 4.17401,-9.2968 4.86313,-14.31398 -0.42088,5.02334 -2.34306,9.82351 -4.09245,14.54651 -0.008,0.022 -0.0163,0.044 -0.0245,0.0661 -1.7318,4.70857 -3.43845,9.49893 -3.54908,14.34207 -0.27,0.0378 -0.54007,0.0775 -0.81021,0.119 -0.27014,0.0415 -0.54036,0.0849 -0.81064,0.13019 z"
       style="fill:#000000;stroke:none;stroke-width:0.26458332px;stroke-linecap:butt;stroke-linejoin:miter;stroke-opacity:1" />
    <path
       transform="matrix(0.65296061,0.03948799,-0.03948799,0.65296061,56.325069,15.865188)"
       id="path7759"
       d="m 170.87821,196.55887 c -1.73609,-0.17108 -3.37709,-0.82335 -4.76447,-1.8042 -1.45129,-1.02896 -2.63231,-2.35269 -3.56988,-3.79154 0,0 0,0 0,0 -2.05863,-3.15203 -3.14071,-6.84596 -3.36451,-10.53802 0,0 0,0 0,0 -0.23629,-3.49719 0.34299,-7.20981 2.3634,-10.17655 0.94904,-1.37973 2.24108,-2.52354 3.75238,-3.25397 1.1832,-0.55995 2.45368,-0.86546 3.73264,-0.97337 0.62067,-0.0524 1.24334,-0.0582 1.85899,-0.024 1.48096,0.26488 2.85178,0.94011 3.99572,1.86445 1.21493,0.9892 2.18869,2.22477 2.96576,3.54855 1.74226,2.96535 2.61979,6.36353 2.84677,9.7541 0,0 0,0 0,0 0.22442,3.26148 -0.14286,6.64913 -1.62275,9.56546 -0.64538,1.2714 -1.53186,2.43538 -2.6679,3.29343 -1.15563,0.87161 -2.55697,1.38655 -3.98591,1.52635 1.42469,-0.17804 2.80173,-0.72922 3.91518,-1.61758 1.0965,-0.87411 1.93274,-2.04095 2.53313,-3.30332 1.38069,-2.90207 1.63821,-6.2283 1.33991,-9.42499 -0.3157,-3.32131 -1.25944,-6.60639 -3.00928,-9.39895 -0.77894,-1.24189 -1.72239,-2.37941 -2.86196,-3.25135 -1.04755,-0.80773 -2.27376,-1.38111 -3.54932,-1.56882 -0.43661,-0.0101 -0.87396,5.7e-4 -1.30774,0.0345 -1.29531,0.10136 -2.55881,0.41054 -3.676,0.99688 -1.30189,0.66775 -2.40745,1.70953 -3.20762,2.93847 -1.75789,2.66824 -2.15079,6.08953 -1.87961,9.35591 0,0 0,0 0,0 0.31209,3.45028 1.40254,6.84462 3.3455,9.63145 0,0 0,0 0,0 0.88075,1.25974 1.93071,2.38588 3.16215,3.19721 0.95105,0.62846 2.02075,1.07417 3.11458,1.25977 0.055,0.36103 0.12719,0.7222 0.21711,1.08255 0.0899,0.36035 0.19761,0.71986 0.32373,1.07757 z"
       style="fill:none;stroke:#000000;stroke-width:2.0999999;stroke-linecap:butt;stroke-linejoin:miter;stroke-miterlimit:4;stroke-dasharray:none;stroke-opacity:1" />
    <path
       transform="matrix(0.65415354,0,0,0.65415354,48.952035,-2.5624321)"
       id="path7769"
       d="m 148.76423,205.34754 c 2.94969,-0.77557 5.91922,-1.15522 8.85875,-1.4746 0.0132,-0.001 0.0264,-0.003 0.0396,-0.004 2.93087,-0.31991 5.86904,-0.55018 8.80423,-0.65413 -2.87894,0.48453 -5.72844,1.09044 -8.55284,1.78056 -0.0175,0.004 -0.0351,0.009 -0.0526,0.0129 -2.81117,0.68928 -5.5986,1.42208 -8.19698,2.47596 -0.14802,-0.35674 -0.29703,-0.71314 -0.44704,-1.0692 -0.15001,-0.35606 -0.30101,-0.71178 -0.45304,-1.06716 z"
       style="fill:#000000;stroke:none;stroke-width:0.26458332px;stroke-linecap:butt;stroke-linejoin:miter;stroke-opacity:1" />
    <path
       transform="matrix(0.65415354,0,0,0.65415354,48.952035,21.322345)"
       id="path7779"
       d="m 186.93049,169.16572 c 3.65619,-0.22029 7.256,-0.36317 10.58559,-1.31473 0.16946,1.18059 0.26171,2.34027 0.33807,3.47964 0,0 0,10e-6 0,10e-6 -0.0868,1.69066 -0.21616,3.37712 -0.37749,5.05883 0,0 0,0 0,0 -0.22794,2.37894 -0.51618,4.7549 -0.89168,7.11644 -0.29859,1.87783 -0.65235,3.74654 -1.07483,5.60037 0,1e-5 0,1e-5 0,1e-5 -0.87153,3.84578 -1.94873,7.76912 -4.15426,11.06365 0,0 0,0 0,0 -0.80585,1.20701 -1.81789,2.33513 -3.12408,2.98107 -1.21319,0.59666 -2.64538,0.63607 -3.91275,0.22271 1.2797,0.37351 2.6956,0.28482 3.85573,-0.33408 1.25811,-0.66857 2.20383,-1.80345 2.96264,-3.01139 2.07532,-3.31139 2.99896,-7.20119 3.75593,-11.05269 0,0 0,0 0,0 0.34395,-1.76152 0.62539,-3.53399 0.85643,-5.31356 0.31701,-2.44174 0.53911,-4.89684 0.69758,-7.3554 0,0 0,0 0,0 0.10762,-1.67288 0.18334,-3.34635 0.21662,-5.01886 0.15106,-0.95484 0.30862,-1.89141 0.41155,-2.80456 -3.10788,1.18715 -6.34166,1.67664 -9.44943,2.20194 -0.10637,-0.24716 -0.21743,-0.4974 -0.33332,-0.75065 -0.11589,-0.25325 -0.23661,-0.50952 -0.3623,-0.76875 z"
       style="fill:none;stroke:#000000;stroke-width:2;stroke-linecap:butt;stroke-linejoin:miter;stroke-miterlimit:4;stroke-dasharray:none;stroke-opacity:1" />
    <path
       transform="matrix(0.65415354,0,0,0.65415354,48.952035,-2.5624321)"
       id="path7789"
       d="m 171.10283,234.7086 c 1.17146,-5.48381 2.74271,-10.90058 4.94524,-16.05183 0.0185,-0.0432 0.037,-0.0865 0.0556,-0.12967 2.18462,-5.10247 5.0129,-10.16511 9.37116,-13.56245 -4.17956,3.59606 -6.68277,8.69531 -8.61423,13.82703 -0.004,0.0116 -0.009,0.0232 -0.0131,0.0348 -1.91482,5.1192 -3.19819,10.44977 -4.09806,15.83494 -0.2744,0.007 -0.54881,0.0145 -0.82325,0.0223 -0.27443,0.008 -0.54889,0.0161 -0.82336,0.0248 z"
       style="fill:#000000;stroke:none;stroke-width:0.26458332px;stroke-linecap:butt;stroke-linejoin:miter;stroke-opacity:1" />
    <path
       transform="matrix(0.65415354,0,0,0.65415354,48.952035,-1.8701201)"
       id="path7799"
       d="m 60.273765,235.06387 c 1.158161,0.73494 2.474499,1.26196 3.857685,1.4971 0.06632,0.0113 0.132785,0.0219 0.199399,0.0318 1.316118,0.17881 2.803256,0.10315 3.77611,-0.86144 -0.837568,1.08461 -2.403266,1.44321 -3.820455,1.40217 -0.05528,-9.1e-4 -0.110585,-0.002 -0.165894,-0.004 -1.466571,-0.0474 -2.938868,-0.40268 -4.303967,-1.02414 0.07482,-0.17426 0.150322,-0.34818 0.226509,-0.52176 0.07619,-0.17357 0.15306,-0.3468 0.230613,-0.51967 z"
       style="fill:none;stroke:#000000;stroke-width:1;stroke-linecap:butt;stroke-linejoin:miter;stroke-miterlimit:4;stroke-dasharray:none;stroke-opacity:1" />
    <text
       id="text7811"
       y="209.39867"
       x="10.988215"
       style="font-style:normal;font-variant:normal;font-weight:normal;font-stretch:normal;font-size:12.82125759px;line-height:1.25;font-family:'Alan Den';-inkscape-font-specification:'Alan Den, Normal';font-variant-ligatures:normal;font-variant-caps:normal;font-variant-numeric:normal;font-feature-settings:normal;text-align:start;letter-spacing:0px;word-spacing:0px;writing-mode:lr-tb;text-anchor:start;fill:#ffffff;fill-opacity:0;stroke:none;stroke-width:0.24039857;"
       xml:space="preserve"><tspan
         style="font-style:normal;font-variant:normal;font-weight:normal;font-stretch:normal;font-size:12.82125759px;font-family:'Alan Den';-inkscape-font-specification:'Alan Den, Normal';font-variant-ligatures:normal;font-variant-caps:normal;font-variant-numeric:normal;font-feature-settings:normal;text-align:start;writing-mode:lr-tb;text-anchor:start;stroke-width:0.24039857;fill:#ffffff;fill-opacity:0;"
         y="209.39867"
         x="10.988215"
         id="tspan7809">Izrada sajtova</tspan></text>
    <text
       id="text7815"
       y="250.7852"
       x="21.71487"
       style="font-style:normal;font-variant:normal;font-weight:normal;font-stretch:normal;font-size:12.82125759px;line-height:1.25;font-family:'Alan Den';-inkscape-font-specification:'Alan Den, Normal';font-variant-ligatures:normal;font-variant-caps:normal;font-variant-numeric:normal;font-feature-settings:normal;text-align:start;letter-spacing:0px;word-spacing:0px;writing-mode:lr-tb;text-anchor:start;fill:#ffffff;fill-opacity:0;stroke:none;stroke-width:0.24039857;"
       xml:space="preserve"><tspan
         style="font-style:normal;font-variant:normal;font-weight:normal;font-stretch:normal;font-size:12.82125759px;font-family:'Alan Den';-inkscape-font-specification:'Alan Den, Normal';font-variant-ligatures:normal;font-variant-caps:normal;font-variant-numeric:normal;font-feature-settings:normal;text-align:start;writing-mode:lr-tb;text-anchor:start;stroke-width:0.24039857;fill:#ffffff;fill-opacity:0;"
         y="250.7852"
         x="21.71487"
         id="tspan7813">Izrada web prodavnica</tspan></text>
    <text
       id="text7819"
       y="292.27588"
       x="4.4950728"
       style="font-style:normal;font-variant:normal;font-weight:normal;font-stretch:normal;font-size:12.82125759px;line-height:1.25;font-family:'Alan Den';-inkscape-font-specification:'Alan Den, Normal';font-variant-ligatures:normal;font-variant-caps:normal;font-variant-numeric:normal;font-feature-settings:normal;text-align:start;letter-spacing:0px;word-spacing:0px;writing-mode:lr-tb;text-anchor:start;fill:#ffffff;fill-opacity:0;stroke:none;stroke-width:0.24039857;"
       xml:space="preserve"><tspan
         style="font-style:normal;font-variant:normal;font-weight:normal;font-stretch:normal;font-size:12.82125759px;font-family:'Alan Den';-inkscape-font-specification:'Alan Den, Normal';font-variant-ligatures:normal;font-variant-caps:normal;font-variant-numeric:normal;font-feature-settings:normal;text-align:start;writing-mode:lr-tb;text-anchor:start;stroke-width:0.24039857;fill:#ffffff;fill-opacity:0;"
         y="292.27588"
         x="4.4950728"
         id="tspan7817">Google pozicioniranje SEO</tspan></text>
  </g>
</svg>
